<svg width="7" height="5" viewBox="0 0 7 5" fill="none" xmlns="http://www.w3.org/2000/svg">
<path d="M5.9119 0.15941C6.03287 0.0560331 6.19384 -0.0011178 6.36085 1.65693e-05C6.52786 0.00115094 6.68785 0.0604821 6.80705 0.16549C6.92626 0.270498 6.99536 0.41297 6.99977 0.562843C7.00419 0.712715 6.94357 0.858266 6.83071 0.968782L3.4045 4.81523C3.34558 4.87219 3.27448 4.9179 3.19543 4.94963C3.11639 4.98137 3.03102 4.99846 2.94445 4.9999C2.85788 5.00134 2.77187 4.98709 2.69157 4.95801C2.61127 4.92893 2.53832 4.88561 2.4771 4.83064L0.204979 2.79103C0.141704 2.7381 0.0909531 2.67427 0.0557533 2.60336C0.0205534 2.53244 0.00162595 2.45589 0.000100227 2.37826C-0.0014255 2.30064 0.0144818 2.22353 0.0468729 2.15155C0.0792639 2.07956 0.127475 2.01417 0.188631 1.95927C0.249787 1.90437 0.322633 1.86109 0.402826 1.83202C0.483018 1.80294 0.568913 1.78866 0.655387 1.79003C0.741861 1.7914 0.827141 1.80839 0.906141 1.83999C0.985141 1.87159 1.05624 1.91715 1.1152 1.97395L2.91332 3.58729L5.89559 0.176369C5.90096 0.170434 5.90669 0.164772 5.91276 0.15941H5.9119Z" fill="white"/>
</svg>
