<svg width="25" height="24" viewBox="0 0 25 24" fill="none" xmlns="http://www.w3.org/2000/svg">
<circle cx="12.5" cy="12" r="12" fill="#E8FDFC"/>
<path fill-rule="evenodd" clip-rule="evenodd" d="M18.2248 9.474C18.3078 9.201 18.2248 9 17.8273 9H16.5148C16.1808 9 16.0268 9.1735 15.9433 9.365C15.9433 9.365 15.2758 10.963 14.3303 12.001C14.0243 12.302 13.8853 12.3975 13.7183 12.3975C13.6349 12.3975 13.5094 12.302 13.5094 12.0285V9.474C13.5094 9.146 13.4174 9 13.1394 9H11.0754C10.8669 9 10.7414 9.152 10.7414 9.2965C10.7414 9.607 11.2144 9.679 11.2629 10.553V12.452C11.2629 12.8685 11.1864 12.944 11.0194 12.944C10.5744 12.944 9.49194 11.3385 8.84945 9.5015C8.72495 9.144 8.59896 9 8.26346 9H6.94999C6.575 9 6.5 9.1735 6.5 9.365C6.5 9.706 6.94499 11.4 8.57246 13.6405C9.65743 15.1705 11.1849 16 12.5764 16C13.4109 16 13.5139 15.816 13.5139 15.4985V14.342C13.5139 13.9735 13.5929 13.9 13.8573 13.9C14.0523 13.9 14.3858 13.996 15.1648 14.7335C16.0548 15.608 16.2013 16 16.7023 16H18.0148C18.3898 16 18.5777 15.816 18.4697 15.452C18.3508 15.09 17.9258 14.5645 17.3623 13.941C17.0563 13.586 16.5973 13.2035 16.4578 13.012C16.2633 12.7665 16.3188 12.657 16.4578 12.4385C16.4578 12.4385 18.0578 10.2255 18.2243 9.474H18.2248Z" fill="#6EE5FF"/>
</svg>
