<svg width="10" height="11" viewBox="0 0 10 11" fill="none" xmlns="http://www.w3.org/2000/svg">
<path d="M5 0C4.45061 0 3.91355 0.169773 3.45675 0.487851C2.99995 0.805929 2.64391 1.25802 2.43367 1.78697C2.22342 2.31591 2.16842 2.89795 2.2756 3.45947C2.38278 4.021 2.64734 4.53679 3.03581 4.94162C3.42429 5.34646 3.91925 5.62216 4.45808 5.73385C4.99692 5.84555 5.55544 5.78822 6.06301 5.56913C6.57058 5.35003 7.00441 4.979 7.30964 4.50297C7.61486 4.02693 7.77778 3.46726 7.77778 2.89474C7.77778 2.127 7.48512 1.39072 6.96419 0.847849C6.44325 0.30498 5.73671 0 5 0ZM5 4.63158C4.67036 4.63158 4.34813 4.52971 4.07405 4.33887C3.79997 4.14802 3.58635 3.87676 3.4602 3.5594C3.33405 3.24203 3.30105 2.89281 3.36536 2.5559C3.42967 2.21898 3.5884 1.90951 3.82149 1.6666C4.05458 1.4237 4.35155 1.25828 4.67485 1.19127C4.99815 1.12425 5.33326 1.15865 5.63781 1.2901C5.94235 1.42156 6.20265 1.64418 6.38578 1.9298C6.56892 2.21542 6.66667 2.55122 6.66667 2.89474C6.66667 3.35538 6.49107 3.79715 6.17851 4.12287C5.86595 4.44859 5.44203 4.63158 5 4.63158ZM10 11V10.4211C10 9.34623 9.59028 8.31542 8.86097 7.55541C8.13166 6.79539 7.14251 6.36842 6.11111 6.36842H3.88889C2.85749 6.36842 1.86834 6.79539 1.13903 7.55541C0.409721 8.31542 0 9.34623 0 10.4211V11H1.11111V10.4211C1.11111 9.65332 1.40377 8.91703 1.9247 8.37416C2.44564 7.8313 3.15218 7.52632 3.88889 7.52632H6.11111C6.84782 7.52632 7.55436 7.8313 8.0753 8.37416C8.59623 8.91703 8.88889 9.65332 8.88889 10.4211V11H10Z" fill="#6EE5FF"/>
</svg>
