<svg width="6" height="7" viewBox="0 0 6 7" fill="none" xmlns="http://www.w3.org/2000/svg">
<path d="M3 0.5C2.67036 0.5 2.34813 0.592604 2.07405 0.766101C1.79997 0.939598 1.58635 1.1862 1.4602 1.47471C1.33405 1.76323 1.30105 2.0807 1.36536 2.38698C1.42967 2.69327 1.5884 2.97461 1.82149 3.19543C2.05458 3.41625 2.35155 3.56663 2.67485 3.62756C2.99815 3.68848 3.33326 3.65721 3.63781 3.5377C3.94235 3.4182 4.20265 3.21582 4.38578 2.95616C4.56892 2.69651 4.66667 2.39123 4.66667 2.07895C4.66667 1.66018 4.49107 1.25857 4.17851 0.962463C3.86595 0.666353 3.44203 0.5 3 0.5ZM3 3.02632C2.80222 3.02632 2.60888 2.97075 2.44443 2.86666C2.27998 2.76256 2.15181 2.6146 2.07612 2.44149C2.00043 2.26838 1.98063 2.0779 2.01921 1.89412C2.0578 1.71035 2.15304 1.54155 2.29289 1.40906C2.43275 1.27656 2.61093 1.18634 2.80491 1.14978C2.99889 1.11323 3.19996 1.13199 3.38268 1.20369C3.56541 1.2754 3.72159 1.39682 3.83147 1.55262C3.94135 1.70841 4 1.89158 4 2.07895C4 2.33021 3.89464 2.57117 3.70711 2.74884C3.51957 2.9265 3.26522 3.02632 3 3.02632ZM6 6.5V6.18421C6 5.59794 5.75417 5.03569 5.31658 4.62113C4.879 4.20658 4.28551 3.97368 3.66667 3.97368H2.33333C1.7145 3.97368 1.121 4.20658 0.683417 4.62113C0.245833 5.03569 0 5.59794 0 6.18421V6.5H0.666667V6.18421C0.666667 5.76545 0.842261 5.36384 1.15482 5.06773C1.46738 4.77162 1.89131 4.60526 2.33333 4.60526H3.66667C4.10869 4.60526 4.53262 4.77162 4.84518 5.06773C5.15774 5.36384 5.33333 5.76545 5.33333 6.18421V6.5H6Z" fill="white"/>
</svg>
