<svg width="18" height="19" viewBox="0 0 18 19" fill="none" xmlns="http://www.w3.org/2000/svg">
<circle cx="9" cy="9.5" r="9" fill="black"/>
<path fill-rule="evenodd" clip-rule="evenodd" d="M13.2936 7.6055C13.3558 7.40075 13.2936 7.25 12.9954 7.25H12.0111C11.7606 7.25 11.6451 7.38013 11.5825 7.52375C11.5825 7.52375 11.0819 8.72225 10.3728 9.50075C10.1433 9.7265 10.039 9.79812 9.91376 9.79812C9.85114 9.79812 9.75701 9.7265 9.75701 9.52137V7.6055C9.75701 7.3595 9.68802 7.25 9.47952 7.25H7.93155C7.77518 7.25 7.68106 7.364 7.68106 7.47237C7.68106 7.70525 8.0358 7.75925 8.07218 8.41475V9.839C8.07218 10.1514 8.0148 10.208 7.88955 10.208C7.55581 10.208 6.74395 9.00387 6.26209 7.62612C6.16872 7.358 6.07422 7.25 5.8226 7.25H4.83749C4.55625 7.25 4.5 7.38013 4.5 7.52375C4.5 7.7795 4.83374 9.05 6.05434 10.7304C6.86808 11.8779 8.01368 12.5 9.05728 12.5C9.68314 12.5 9.76039 12.362 9.76039 12.1239V11.2565C9.76039 10.9801 9.81964 10.925 10.018 10.925C10.1643 10.925 10.4144 10.997 10.9986 11.5501C11.6661 12.206 11.776 12.5 12.1517 12.5H13.1361C13.4173 12.5 13.5583 12.362 13.4773 12.089C13.3881 11.8175 13.0693 11.4234 12.6467 10.9557C12.4172 10.6895 12.073 10.4026 11.9683 10.259C11.8225 10.0749 11.8641 9.99275 11.9683 9.82887C11.9683 9.82887 13.1683 8.16912 13.2932 7.6055H13.2936Z" fill="white"/>
</svg>
