<svg width="13" height="13" viewBox="0 0 13 13" fill="none" xmlns="http://www.w3.org/2000/svg">
<path d="M6.85305 2.99903H6.14846C6.084 2.99903 6.03127 3.05176 6.03127 3.11621V7.14893C6.03127 7.18701 6.04885 7.22217 6.07961 7.24414L8.501 9.01221C8.55373 9.05029 8.62697 9.04004 8.66506 8.98731L9.08401 8.41602C9.12356 8.36182 9.11184 8.28858 9.0591 8.25195L6.97023 6.7417V3.11621C6.97023 3.05176 6.9175 2.99903 6.85305 2.99903ZM10.0728 4.10059L12.3696 4.66162C12.4429 4.6792 12.5147 4.62354 12.5147 4.54883L12.5264 2.18311C12.5264 2.08496 12.4136 2.0293 12.3374 2.09082L10.0288 3.89404C10.0114 3.90754 9.9981 3.92569 9.99051 3.9464C9.98291 3.96711 9.98132 3.98955 9.98591 4.01112C9.9905 4.0327 10.0011 4.05254 10.0165 4.06837C10.0318 4.08419 10.0513 4.09536 10.0728 4.10059ZM12.5293 8.51123L11.6988 8.22559C11.6698 8.21566 11.6381 8.21746 11.6105 8.2306C11.5828 8.24374 11.5614 8.26718 11.5508 8.2959C11.523 8.37061 11.4937 8.44385 11.4629 8.51709C11.2022 9.13379 10.8286 9.68897 10.3511 10.165C9.87886 10.6387 9.3192 11.0163 8.70315 11.2769C8.06495 11.5467 7.37894 11.6852 6.68606 11.6841C5.98586 11.6841 5.30764 11.5479 4.66897 11.2769C4.05291 11.0163 3.49325 10.6387 3.02102 10.165C2.54494 9.68897 2.17141 9.13379 1.9092 8.51709C1.64087 7.87854 1.50339 7.19264 1.5049 6.5C1.5049 5.79981 1.64113 5.12012 1.91213 4.48145C2.17287 3.86475 2.54641 3.30957 3.02395 2.8335C3.49618 2.3598 4.05584 1.98221 4.6719 1.72168C5.30764 1.45069 5.98732 1.31445 6.68752 1.31445C7.38772 1.31445 8.06594 1.45069 8.70461 1.72168C9.32067 1.98221 9.88032 2.3598 10.3526 2.8335C10.502 2.98438 10.6426 3.14111 10.7715 3.30664L11.6475 2.6211C10.4946 1.14746 8.70022 0.199709 6.68459 0.201174C3.17482 0.202638 0.356465 3.05322 0.391622 6.56446C0.426778 10.0142 3.23195 12.7988 6.68752 12.7988C9.40481 12.7988 11.7193 11.0762 12.6011 8.66358C12.6231 8.60205 12.5908 8.5332 12.5293 8.51123Z" fill="#fff"/>
</svg>
