<svg width="15" height="15" viewBox="0 0 15 15" fill="none" xmlns="http://www.w3.org/2000/svg">
<path d="M15 4.69486C15 4.17713 14.5802 3.75736 14.0625 3.75736H12.4622C12.8763 3.34885 13.1414 2.81332 13.1414 2.15377C13.1414 1.34166 12.675 0.459473 11.3658 0.459473C9.64312 0.459473 8.20406 2.29369 7.52789 3.32189C6.85125 2.29393 5.36812 0.459707 3.6457 0.459707C2.33648 0.459707 1.87008 1.34189 1.87008 2.154C1.87008 2.8133 2.14242 3.34908 2.565 3.7576H0.9375C0.419766 3.7576 0 4.17736 0 4.6951V7.50127H0.945703V13.6032C0.945703 14.121 1.36545 14.5407 1.8832 14.5407H13.1285C13.6462 14.5407 14.066 14.121 14.066 13.6032V7.50104H15V4.69486H15ZM11.3658 1.39721C11.9454 1.39721 12.2039 1.64074 12.2039 2.15402C12.2039 3.19535 11.0416 3.75713 9.94851 3.75713H8.36156C9.02764 2.76783 10.2 1.39721 11.3658 1.39721ZM3.64569 1.39722C4.8117 1.39722 6.02833 2.76785 6.69442 3.75691H5.107C4.01388 3.75691 2.80755 3.18058 2.80755 2.13925C2.80755 1.62621 3.06606 1.39722 3.64569 1.39722ZM14.0625 6.56353H7.96873V4.69486H14.0625V6.56353ZM0.937485 4.69486H7.03123V6.56353H0.937485V4.69486ZM1.88319 7.50104H7.03123V13.603H1.88319V7.50104ZM13.1287 13.603H7.96873V7.50104H13.1287V13.603Z" fill="#000"/>
</svg>
