<svg width="17" height="17" viewBox="0 0 17 17" fill="none" xmlns="http://www.w3.org/2000/svg">
<path d="M12.3744 3.19667C12.4681 3.1029 12.5208 2.97572 12.5208 2.84312C12.5208 2.71051 12.4681 2.58333 12.3744 2.48956L10.6066 0.721797C10.4191 0.53426 10.1647 0.428904 9.89949 0.428903C9.63428 0.428903 9.37992 0.53426 9.19239 0.721797L0.707107 9.20708C0.51957 9.39461 0.414213 9.64897 0.414213 9.91418C0.414213 10.1794 0.51957 10.4338 0.707107 10.6213L2.47487 12.3891C2.56864 12.4828 2.69582 12.5355 2.82843 12.5355C2.96104 12.5355 3.08821 12.4828 3.18198 12.3891C3.36952 12.2015 3.62387 12.0962 3.88909 12.0962C4.1543 12.0962 4.40866 12.2015 4.59619 12.3891C4.78373 12.5766 4.88909 12.8309 4.88909 13.0962C4.88909 13.3614 4.78373 13.6157 4.59619 13.8033C4.50243 13.897 4.44975 14.0242 4.44975 14.1568C4.44975 14.2894 4.50243 14.4166 4.59619 14.5104L6.36396 16.2781C6.5515 16.4657 6.80585 16.571 7.07107 16.571C7.33628 16.571 7.59064 16.4657 7.77817 16.2781L16.2635 7.79286C16.451 7.60533 16.5563 7.35097 16.5563 7.08576C16.5563 6.82054 16.451 6.56619 16.2635 6.37865L14.4957 4.61088C14.4019 4.51712 14.2747 4.46444 14.1421 4.46444C14.0095 4.46444 13.8824 4.51712 13.7886 4.61088C13.601 4.79842 13.3467 4.90378 13.0815 4.90378C12.8163 4.90378 12.5619 4.79842 12.3744 4.61088C12.1868 4.42335 12.0815 4.16899 12.0815 3.90378C12.0815 3.63856 12.1868 3.38421 12.3744 3.19667ZM14.0962 5.62558L15.5563 7.08576L13.0815 9.56063L12.0208 8.49997L11.3137 9.20708L12.3744 10.2677L7.07107 15.571L5.61089 14.1109C5.83443 13.7291 5.9251 13.284 5.86871 12.8453C5.81232 12.4065 5.61205 11.9988 5.29924 11.686C4.98643 11.3732 4.57874 11.1729 4.13998 11.1165C3.70121 11.0601 3.25613 11.1508 2.87439 11.3744L1.41421 9.91418L6.71751 4.61088L7.77817 5.67154L8.48528 4.96444L7.42462 3.90378L9.89949 1.4289L11.3597 2.88908C11.1361 3.27082 11.0455 3.7159 11.1019 4.15467C11.1582 4.59343 11.3585 5.00112 11.6713 5.31393C11.9841 5.62674 12.3918 5.82701 12.8306 5.8834C13.2694 5.93979 13.7144 5.84912 14.0962 5.62558Z" fill="#6EE5FF"/>
<path d="M8.48528 6.37865L9.19239 5.67154L11.3137 7.79286L10.6066 8.49997L8.48528 6.37865Z" fill="#6EE5FF"/>
</svg>
